Coordinates
version=1
nRows=8
nColumns=34
inDegrees=yes

Units are S.I. units (second, meters, Newtons, ...)
If the header above contains a line with 'inDegrees', this indicates whether rotational values are in degrees (yes) or radians (no).

endheader
time	pelvis_tilt	pelvis_list	pelvis_rotation	pelvis_tx	pelvis_ty	pelvis_tz	hip_flexion_r	hip_adduction_r	hip_rotation_r	knee_angle_r	ankle_angle_r	subtalar_angle_r	mtp_angle_r	hip_flexion_l	hip_adduction_l	hip_rotation_l	knee_angle_l	ankle_angle_l	subtalar_angle_l	mtp_angle_l	lumbar_extension	lumbar_bending	lumbar_rotation	arm_flex_r	arm_add_r	arm_rot_r	elbow_flex_r	pro_sup_r	arm_flex_l	arm_add_l	arm_rot_l	elbow_flex_l	pro_sup_l
      1.51666670	    -49.46748467	     20.35212776	     29.28455611	      0.05347530	      1.17158038	     -0.12053627	     21.85256626	    -15.44450076	     26.97283738	     32.29191047	     50.00000000	    -35.00000000	      0.00000000	     55.97151973	     30.00000025	     -7.77505902	     46.10382154	     50.00000000	    -10.59530921	      0.00000000	     26.67038834	    -55.44458189	    -28.33877868	    -10.37842293	      9.82047543	     22.29050117	     25.11920326	     87.83322515	    -40.17377225	    -15.99037530	    -25.01915091	     74.99466287	    107.05398911
      1.53333330	    -48.80558694	     20.38698373	     28.70457937	      0.05113266	      1.16646462	     -0.12051797	     22.02978313	    -15.50700420	     26.88980588	     32.69370072	     50.00000000	    -35.00000000	      0.00000000	     56.10218799	     30.00000025	     -7.44817970	     45.17759058	     50.00000000	    -10.44765849	      0.00000000	     26.47670919	    -55.14164393	    -28.23480113	    -10.35168702	      9.52484030	     22.26256315	     25.03168726	     87.81021163	    -40.25159074	    -15.88526483	    -25.00347090	     75.05995493	    107.07623388
      1.55000000	    -46.32398887	     20.67754100	     27.99389635	      0.05280978	      1.17086120	     -0.12025372	     20.02541827	    -15.25649909	     26.25313475	     32.97970473	     50.00000000	    -35.00000000	      0.00000000	     53.34598969	     30.00000025	     -5.89875829	     44.52158583	     50.00000000	    -11.17163362	      0.00000000	     21.76242825	    -54.50021548	    -29.91012972	     -9.55092869	      9.66978770	     22.54126789	     24.26041725	     87.13785871	    -38.99633230	    -16.11572120	    -25.36627009	     75.52943178	    107.83926218
      1.56666670	    -46.03373351	     20.24480804	     28.01057413	      0.05376779	      1.17049827	     -0.12016599	     20.24035836	    -15.10281508	     25.75764164	     33.43916914	     50.00000000	    -35.00000000	      0.00000000	     52.74478821	     30.00000025	     -4.67215255	     44.66696216	     50.00000000	    -13.00894399	      0.00000000	     21.23983585	    -54.20273506	    -30.46201590	     -9.59645502	      9.42388011	     22.51985790	     24.01053772	     86.92681401	    -38.88000266	    -16.21128927	    -25.42097597	     75.53567037	    108.05601877
      1.58333330	    -45.00040545	     19.96260831	     27.94221051	      0.05294980	      1.17080133	     -0.11910635	     19.66332031	    -14.90173537	     25.02706719	     33.71538332	     50.00000000	    -35.00000000	      0.00000000	     51.39424166	     30.00000025	     -3.32630293	     44.68123855	     50.00000000	    -13.72539319	      0.00000000	     18.65278848	    -53.65708927	    -32.13827767	     -9.16556455	      9.39728875	     22.62769455	     23.44712098	     86.18611834	    -38.22136081	    -16.45986995	    -25.83242512	     75.39220250	    108.82088459
      1.60000000	    -45.00707438	     19.68119289	     27.95229980	      0.05164976	      1.17130145	     -0.11752734	     19.98053692	    -14.95649587	     24.81693079	     34.07130034	     50.00000000	    -35.00000000	      0.00000000	     50.98112990	     30.00000025	     -2.46778001	     45.02095444	     50.00000000	    -14.87705059	      0.00000000	     18.09152127	    -53.52415815	    -32.59846392	     -9.16483371	      9.20186472	     22.64101748	     23.22472253	     85.97712436	    -38.02793449	    -16.68308748	    -25.97879744	     75.77832323	    109.02050663
      1.61666670	    -45.03201665	     19.24439305	     27.95198878	      0.05277055	      1.17150197	     -0.11733798	     20.71542368	    -14.96081470	     24.44036933	     34.89451884	     50.00000000	    -35.00000000	      0.00000000	     50.56195735	     30.00000025	     -1.32279958	     45.16883624	     50.00000000	    -16.42029428	      0.00000000	     17.32270540	    -53.24385415	    -33.41162896	     -9.12742720	      8.99115614	     22.64128560	     22.87159388	     85.75250798	    -37.85564109	    -16.84884307	    -26.23882176	     75.95897866	    109.22455508
      1.63333330	    -45.70396778	     18.80694589	     28.16095741	      0.05436867	      1.17105885	     -0.11743246	     20.91193218	    -14.68561804	     24.22350537	     35.35712270	     50.00000000	    -35.00000000	      0.00000000	     51.17786939	     30.00000025	     -1.48542129	     46.14464189	     50.00000000	    -17.92934232	      0.00000000	     16.71913152	    -53.03900150	    -34.34103629	     -9.12254106	      8.84861861	     22.60434639	     22.72841669	     85.45883971	    -37.82807983	    -17.02100205	    -26.68959704	     76.40608354	    109.47153819
